<?xml version="1.0" encoding="utf-8"?>
<!-- Generator: Adobe Illustrator 16.0.4, SVG Export Plug-In . SVG Version: 6.00 Build 0)  -->
<!DOCTYPE svg PUBLIC "-//W3C//DTD SVG 1.1//EN" "http://www.w3.org/Graphics/SVG/1.1/DTD/svg11.dtd">
<svg version="1.1" id="Layer_1" xmlns="http://www.w3.org/2000/svg" xmlns:xlink="http://www.w3.org/1999/xlink" x="0px" y="0px"
	 width="100px" height="100px" viewBox="0 0 100 100" enable-background="new 0 0 100 100" xml:space="preserve">
<path d="M50,13.41c20.176,0,36.59,16.415,36.59,36.59c0,20.176-16.414,36.59-36.59,36.59c-20.175,0-36.59-16.414-36.59-36.59
	C13.41,29.825,29.825,13.41,50,13.41 M50,0C22.386,0,0,22.386,0,50s22.386,50,50,50s50-22.386,50-50S77.614,0,50,0L50,0z
	 M45.837,33.385c-1.121-1.119-1.68-2.507-1.68-4.163c0-1.655,0.559-3.042,1.68-4.163c1.12-1.119,2.507-1.68,4.163-1.68
	c1.654,0,3.042,0.561,4.163,1.68c1.119,1.121,1.679,2.508,1.679,4.163c0,1.656-0.56,3.043-1.679,4.163
	c-1.121,1.121-2.509,1.68-4.163,1.68C48.344,35.065,46.957,34.506,45.837,33.385z M45.472,39.812h9.056V76.62h-9.056V39.812z"/>
</svg>
