<?xml version="1.0" encoding="utf-8"?>
<!-- Generator: Adobe Illustrator 16.0.0, SVG Export Plug-In . SVG Version: 6.00 Build 0)  -->
<!DOCTYPE svg PUBLIC "-//W3C//DTD SVG 1.1//EN" "http://www.w3.org/Graphics/SVG/1.1/DTD/svg11.dtd">
<svg version="1.1" id="Layer_1" xmlns="http://www.w3.org/2000/svg" xmlns:xlink="http://www.w3.org/1999/xlink" x="0px" y="0px"
	 width="22.938px" height="22.938px" viewBox="0 0 22.938 22.938" enable-background="new 0 0 22.938 22.938" xml:space="preserve">
<path d="M11.469,0C5.135,0,0,5.135,0,11.47c0,6.334,5.135,11.469,11.469,11.469s11.469-5.135,11.469-11.469
	C22.938,5.135,17.803,0,11.469,0z M16.792,8.789C16.798,8.903,16.8,9.016,16.8,9.131c0,3.492-2.656,7.517-7.517,7.517
	c-1.493,0-2.883-0.438-4.052-1.187c0.206,0.023,0.417,0.037,0.633,0.037c1.235,0,2.376-0.422,3.279-1.131
	c-1.154-0.021-2.132-0.785-2.469-1.834c0.162,0.029,0.328,0.047,0.499,0.047c0.241,0,0.474-0.032,0.695-0.094
	c-1.208-0.241-2.12-1.311-2.12-2.59c0-0.011,0-0.021,0.002-0.031c0.354,0.196,0.764,0.314,1.193,0.328
	C6.238,9.721,5.771,8.912,5.771,7.995c0-0.484,0.13-0.938,0.359-1.328c1.303,1.599,3.248,2.648,5.444,2.76
	c-0.048-0.193-0.068-0.395-0.068-0.602c0-1.459,1.182-2.644,2.642-2.644c0.76,0,1.447,0.321,1.93,0.834
	c0.601-0.119,1.167-0.338,1.676-0.641c-0.197,0.617-0.615,1.134-1.16,1.461c0.533-0.063,1.042-0.206,1.517-0.416
	C17.755,7.952,17.308,8.417,16.792,8.789z"/>
</svg>
