<?xml version="1.0" encoding="utf-8"?>
<!-- Generator: Adobe Illustrator 16.0.0, SVG Export Plug-In . SVG Version: 6.00 Build 0)  -->
<!DOCTYPE svg PUBLIC "-//W3C//DTD SVG 1.1//EN" "http://www.w3.org/Graphics/SVG/1.1/DTD/svg11.dtd">
<svg version="1.1" id="Layer_1" xmlns="http://www.w3.org/2000/svg" xmlns:xlink="http://www.w3.org/1999/xlink" x="0px" y="0px"
	 width="22.938px" height="22.938px" viewBox="0 0 22.938 22.938" enable-background="new 0 0 22.938 22.938" xml:space="preserve">
<path d="M11.469,0C5.135,0,0,5.135,0,11.47c0,6.334,5.135,11.469,11.469,11.469s11.469-5.135,11.469-11.469
	C22.938,5.135,17.803,0,11.469,0z M9.18,17.025L9.18,17.025c-0.001,0-0.001,0-0.003,0c-0.636-0.002-1.223-0.193-1.761-0.572
	c-0.179-0.127-0.354-0.274-0.522-0.442c-0.654-0.654-0.979-1.408-0.978-2.262c0.001-0.854,0.332-1.611,0.992-2.271
	c0.678-0.677,1.599-1.035,2.728-1.035c0.281,0,0.576,0.022,0.883,0.067l1.676,0.224c0.316,0.066,0.616,0.096,0.895,0.096
	c0.744,0,1.336-0.218,1.677-0.56c0.291-0.29,0.434-0.632,0.432-1.026c-0.011-0.352-0.13-0.663-0.36-0.936
	c-0.032-0.039-0.067-0.077-0.104-0.114c-0.108-0.108-0.225-0.197-0.35-0.267c-0.207-0.113-0.438-0.174-0.689-0.178
	c-0.002,0-0.003-0.001-0.005-0.001c-0.394-0.011-0.737,0.131-1.032,0.425c-0.361,0.362-0.584,0.855-0.553,1.671l-1.483-0.198
	c0,0,0.001,0,0.001,0c-0.001,0-0.001,0-0.002,0l-0.006,0c0.001,0,0.002,0,0.003,0c-0.058-0.009-0.114-0.012-0.172-0.019
	c-0.051-1.175,0.28-1.967,1.034-2.723c0.67-0.669,1.423-0.999,2.26-0.991l0.012-0.001c0.001,0,0.004,0,0.006,0
	c0.843,0,1.599,0.334,2.267,1.003c0.166,0.166,0.311,0.337,0.435,0.514c0.373,0.532,0.561,1.116,0.563,1.753
	c0.007,0.631-0.173,1.211-0.543,1.739c-0.122,0.177-0.267,0.348-0.432,0.513c-0.693,0.692-1.609,1.059-2.712,1.059
	c-0.298,0-0.61-0.027-0.934-0.081l-1.669-0.218c-0.312-0.066-0.608-0.098-0.885-0.098c-0.743,0-1.339,0.225-1.69,0.575
	c-0.109,0.109-0.197,0.226-0.263,0.35c-0.111,0.205-0.163,0.431-0.155,0.677C7.748,14.001,7.835,14.272,8,14.51
	c0.055,0.079,0.118,0.154,0.191,0.227c0.287,0.288,0.625,0.439,1.015,0.458h0.029c0.402,0.005,0.748-0.14,1.039-0.43
	c0.366-0.366,0.588-0.862,0.553-1.681l1.47,0.191c0.056,0.009,0.11,0.016,0.165,0.023c0.037,1.204-0.284,1.994-1.01,2.721
	C10.782,16.689,10.026,17.023,9.18,17.025"/>
</svg>
